<svg width="32" height="32" viewBox="0 0 32 32" fill="none" xmlns="http://www.w3.org/2000/svg">
<rect x="2" y="2" width="6" height="12.1046" rx="3" fill="#FFBC32"/>
<path d="M2 22H8V26.5C8 28.1569 6.65685 29.5 5 29.5V29.5C3.34315 29.5 2 28.1569 2 26.5V22Z" fill="#3CA333"/>
<path d="M24 8H30V27C30 28.6569 28.6569 30 27 30V30C25.3431 30 24 28.6569 24 27V8Z" fill="#FFBC32"/>
<path d="M12.2837 5C12.2837 3.34315 13.6268 2 15.2837 2H24.3306V8H15.2837C13.6268 8 12.2837 6.65685 12.2837 5V5Z" fill="#F4433C"/>
<path d="M24.3308 2L29.9999 8H24.3308V2Z" fill="#F4433C"/>
<path fill-rule="evenodd" clip-rule="evenodd" d="M2 22L7.99996 16V16H8.00001H21C22.6568 16 24 17.3431 24 19C24 20.6569 22.6568 22 21 22H8.00001H7.99996H2Z" fill="#2D85F0"/>
</svg>
