<svg width="128" height="128" viewBox="0 0 128 128" fill="none" xmlns="http://www.w3.org/2000/svg">
<rect x="8" y="8" width="24" height="48.4185" rx="8" fill="#FFBC32"/>
<path d="M8 88H32V106C32 109.728 32 111.591 31.391 113.061C30.5791 115.022 29.0217 116.579 27.0615 117.391C25.5913 118 23.7275 118 20 118C16.2725 118 14.4087 118 12.9385 117.391C10.9783 116.579 9.42092 115.022 8.60896 113.061C8 111.591 8 109.728 8 106V88Z" fill="#3CA333"/>
<path d="M96 32H120V108C120 111.728 120 113.591 119.391 115.061C118.579 117.022 117.022 118.579 115.061 119.391C113.591 120 111.728 120 108 120C104.272 120 102.409 120 100.939 119.391C98.9783 118.579 97.4209 117.022 96.609 115.061C96 113.591 96 111.728 96 108V32Z" fill="#FFBC32"/>
<path d="M49.1357 20C49.1357 16.2725 49.1357 14.4087 49.7447 12.9385C50.5567 10.9783 52.1141 9.42092 54.0743 8.60896C55.5444 8 57.4082 8 61.1357 8H97.3234V32H61.1357C57.4082 32 55.5444 32 54.0743 31.391C52.1141 30.5791 50.5567 29.0217 49.7447 27.0615C49.1357 25.5913 49.1357 23.7275 49.1357 20Z" fill="#F4433C"/>
<path d="M97.3235 8L120 32H97.3235V8Z" fill="#F4433C"/>
<path fill-rule="evenodd" clip-rule="evenodd" d="M8 88L32 64H32H88C92.4183 64 96 67.5817 96 72V80C96 84.4183 92.4183 88 88 88H32H32H8Z" fill="#2D85F0"/>
</svg>
